<svg width="172" height="206" viewBox="0 0 172 206" fill="none" xmlns="http://www.w3.org/2000/svg">
<path d="M131.742 92.2261H86.0001H40.2754L0.5 180.504L40.2583 165.451L55.3113 205.209L86.0001 137.076L116.689 205.209L131.742 165.451L171.5 180.504L131.742 92.2261Z" fill="#0F595C"/>
<circle cx="85.7967" cy="62.136" r="62.034" fill="#FFE27C"/>
<circle cx="86.0946" cy="62.434" r="48.6132" stroke="#F58632" stroke-width="4" stroke-miterlimit="0"/>
<path d="M86.2994 100.939C107.774 100.939 125.183 83.5302 125.183 62.0555C125.183 40.5808 107.774 23.1721 86.2994 23.1721C64.8247 23.1721 47.416 40.5808 47.416 62.0555C47.416 83.5302 64.8247 100.939 86.2994 100.939Z" fill="#0F595C"/>
<path d="M93.6099 54.2637C93.6099 64.2575 86.2206 72.359 86.2206 72.359C86.2206 72.359 78.6805 64.2507 78.8313 54.2637C78.9822 44.2605 86.2206 36.1685 86.2206 36.1685C86.2206 36.1685 93.6099 44.27 93.6099 54.2637Z" fill="white"/>
<path d="M74.2701 63.366C81.3359 70.4317 81.8402 81.3851 81.8402 81.3851C81.8402 81.3851 70.7753 80.9828 63.821 73.8151C56.8545 66.6351 56.251 55.7959 56.251 55.7959C56.251 55.7959 67.2044 56.3002 74.2701 63.366Z" fill="white"/>
<path d="M108.784 73.8693C101.718 80.935 90.7646 81.4393 90.7646 81.4393C90.7646 81.4393 91.167 70.3744 98.3347 63.4202C105.515 56.4536 116.354 55.8501 116.354 55.8501C116.354 55.8501 115.85 66.8035 108.784 73.8693Z" fill="white"/>
</svg>
